
<svg version="1.0" xmlns="http://www.w3.org/2000/svg"
 width="904.000000pt" height="881.000000pt" viewBox="0 0 904.000000 881.000000"
 preserveAspectRatio="xMidYMid meet">

<g transform="translate(0.000000,881.000000) scale(0.100000,-0.100000)"
fill="#000000" stroke="none">
<path d="M4068 5884 c-5 -4 -8 -124 -8 -266 0 -220 2 -258 15 -258 11 0 15 19
17 88 l3 87 85 6 c144 10 220 69 220 173 0 63 -28 108 -87 143 -38 22 -60 27
-142 31 -53 2 -99 1 -103 -4z m212 -46 c118 -60 117 -186 0 -246 -37 -18 -58
-22 -115 -20 l-70 3 -3 129 c-1 72 0 136 2 143 9 23 134 17 186 -9z"/>
<path d="M4485 5878 c-3 -7 -4 -126 -3 -263 3 -229 4 -250 21 -253 15 -3 17 8
17 132 l0 136 33 20 c62 38 169 13 182 -42 3 -13 6 -72 8 -133 2 -95 4 -110
20 -113 15 -3 17 8 17 120 0 142 -11 172 -75 202 -37 18 -106 18 -162 1 -22
-7 -22 -5 -25 96 -2 71 -7 104 -15 107 -7 2 -15 -2 -18 -10z"/>
<path d="M7970 5630 c0 -244 1 -261 18 -258 15 3 18 20 22 137 l5 134 35 18
c42 23 81 24 120 4 53 -27 60 -48 60 -177 0 -111 1 -118 20 -118 19 0 20 7 20
110 0 127 -12 166 -60 200 -43 30 -117 38 -161 16 -17 -9 -33 -16 -35 -16 -2
0 -5 46 -6 102 -3 89 -5 103 -20 106 -17 3 -18 -14 -18 -258z"/>
<path d="M5438 5753 l-3 -68 -33 -3 c-41 -4 -38 -26 4 -27 l29 0 3 -148 c2
-134 4 -148 20 -145 15 3 18 21 22 148 l5 145 33 3 c17 2 32 7 32 12 0 5 -15
10 -32 12 -33 3 -33 3 -38 68 -4 51 -9 66 -22 68 -14 3 -18 -7 -20 -65z"/>
<path d="M2470 5794 c-270 -24 -361 -68 -433 -211 -30 -59 -117 -142 -183
-176 -113 -57 -123 -59 -654 -77 -320 -12 -516 -25 -595 -41 -73 -16 -202 -81
-262 -134 -90 -80 -171 -224 -207 -370 -12 -46 -18 -190 -26 -635 -6 -316 -15
-750 -19 -965 -4 -214 -4 -404 1 -422 12 -43 59 -80 111 -88 23 -3 222 -5 442
-3 l400 3 57 27 c40 19 65 38 84 68 34 52 36 102 11 300 -22 177 -37 560 -37
945 0 338 7 409 60 634 24 104 30 151 30 244 0 154 -13 210 -59 259 -22 24
-50 42 -71 47 -36 8 -251 5 -330 -4 -27 -3 -40 -2 -35 4 12 11 204 25 670 51
375 20 410 26 512 86 58 34 142 119 194 196 80 120 106 139 219 163 96 20 542
32 624 16 131 -24 228 -90 306 -205 60 -90 128 -152 219 -200 63 -33 105 -45
296 -87 28 -6 54 -14 58 -18 4 -4 -24 -20 -62 -35 -84 -33 -182 -100 -285
-195 -42 -39 -82 -71 -90 -71 -7 0 -24 8 -37 19 -13 10 -58 37 -99 59 -374
204 -869 198 -1235 -16 -315 -184 -527 -480 -601 -842 -25 -117 -25 -372 -1
-492 95 -474 443 -849 903 -970 113 -30 129 -32 326 -33 l207 -2 32 -27 c106
-90 266 -121 418 -81 269 70 625 339 993 753 55 62 102 111 104 110 1 -2 -13
-61 -31 -133 -64 -241 -68 -363 -15 -417 46 -46 102 -36 195 35 96 74 242 217
423 415 108 116 196 212 197 212 2 0 -4 -26 -11 -57 -33 -141 -3 -215 99 -244
81 -23 161 40 332 264 49 64 93 117 97 117 4 0 8 -19 8 -42 1 -94 61 -168 155
-189 135 -30 364 58 599 230 39 28 72 49 74 46 2 -2 -37 -122 -88 -267 -50
-144 -94 -283 -97 -309 -5 -41 -2 -50 24 -79 48 -53 70 -40 116 67 51 122 295
573 309 573 3 0 20 -25 37 -55 41 -73 94 -130 150 -163 42 -24 55 -27 141 -26
87 0 101 3 170 36 41 19 111 62 156 95 101 76 289 264 298 298 9 37 -9 65 -43
65 -24 0 -41 -14 -94 -77 -207 -248 -400 -373 -531 -343 -94 21 -171 123 -183
243 l-6 56 66 68 c69 72 155 130 197 134 14 1 42 -1 63 -6 71 -14 113 42 82
109 -30 63 -97 70 -180 18 -22 -13 -98 -83 -169 -154 -71 -71 -135 -132 -142
-136 -13 -8 -23 -25 -166 -297 -107 -203 -118 -221 -118 -189 0 37 141 438
172 489 10 17 18 38 18 48 0 35 123 333 152 367 156 188 265 346 376 545 104
186 164 356 148 420 -10 41 -50 75 -88 75 -26 0 -42 -11 -88 -57 -81 -84 -201
-333 -421 -871 -5 -13 -28 -31 -52 -41 -24 -11 -47 -27 -51 -36 -11 -28 -7
-62 9 -75 23 -19 19 -39 -35 -188 -49 -131 -54 -140 -118 -206 -200 -204 -392
-306 -579 -306 -127 0 -166 26 -187 121 -11 51 22 129 75 179 43 41 49 50 43
77 -5 26 1 37 53 93 68 74 135 120 175 120 35 0 35 -8 -2 -55 -42 -53 -41 -96
5 -142 46 -46 77 -43 86 9 6 41 31 77 136 195 40 46 74 91 74 100 4 63 -20
103 -60 103 -26 0 -55 -27 -108 -99 -1 -2 -19 4 -39 14 -47 22 -114 15 -181
-19 -70 -36 -148 -124 -214 -241 -61 -110 -280 -448 -330 -512 -105 -132 -182
-169 -209 -102 -20 48 16 162 134 415 31 66 56 132 56 145 0 43 -27 69 -70 69
-53 0 -95 -37 -113 -99 -36 -122 -616 -802 -782 -916 -102 -71 -130 -30 -96
139 39 192 171 562 237 662 36 55 44 75 40 98 -5 22 16 81 90 255 186 435 284
642 345 726 62 86 140 239 160 317 16 59 4 99 -33 112 -20 7 -31 6 -44 -5 -15
-12 -174 -327 -239 -474 -16 -36 -39 -65 -83 -100 -66 -53 -82 -92 -42 -102
11 -3 20 -10 20 -17 0 -6 -41 -103 -91 -216 -50 -113 -120 -277 -156 -365 -71
-176 -143 -294 -298 -490 -328 -416 -670 -704 -945 -796 -85 -28 -104 -31
-185 -27 -68 3 -101 10 -133 27 -57 29 -126 93 -168 155 -38 57 -89 188 -81
209 3 8 27 18 54 22 190 28 434 203 544 391 77 131 106 226 119 384 21 268
-60 496 -243 687 l-50 52 73 98 c91 121 242 278 331 343 140 105 276 143 374
106 85 -33 115 -94 115 -236 -1 -118 -10 -151 -64 -212 -26 -29 -61 -82 -79
-118 -28 -56 -32 -75 -32 -141 0 -62 4 -81 20 -99 53 -59 140 36 210 230 14
41 32 78 38 82 7 4 42 19 79 34 38 14 77 37 88 51 27 35 41 89 30 119 -12 30
-42 31 -101 4 -67 -30 -71 -28 -64 33 15 125 -35 268 -112 320 -34 22 -43 35
-43 56 0 36 -32 77 -78 100 -108 54 -297 91 -464 91 l-98 0 -40 36 c-23 21
-65 74 -95 119 -63 96 -105 134 -194 177 -107 51 -155 59 -401 62 -124 2 -245
2 -270 0z m1356 -484 c91 -21 182 -59 203 -83 18 -22 8 -21 -63 4 -32 11 -118
36 -190 55 -72 19 -135 40 -141 45 -13 14 85 3 191 -21z m-2958 -192 c3 -16
-5 -18 -63 -18 -112 0 -185 -47 -185 -121 0 -32 5 -41 30 -54 16 -8 49 -15 73
-15 35 0 48 -5 59 -22 14 -21 17 -21 71 -9 71 16 113 50 127 103 14 50 6 89
-26 118 -33 32 -30 40 14 40 44 0 63 -16 87 -73 22 -53 19 -82 -15 -120 -68
-78 -209 -110 -490 -111 -141 -1 -170 2 -202 17 -54 27 -57 49 -14 111 51 74
105 136 137 155 22 13 58 16 210 16 167 0 184 -2 187 -17z m301 -42 c19 -38
26 -68 29 -138 5 -99 -7 -171 -48 -297 -48 -149 -59 -271 -65 -756 -5 -430 -2
-522 31 -942 l7 -82 -39 -39 c-29 -30 -52 -42 -92 -51 -72 -15 -707 -15 -751
0 -62 22 -64 34 -57 403 4 182 8 381 11 441 3 61 7 292 10 515 6 419 15 568
41 658 16 57 22 61 49 32 32 -35 104 -42 380 -38 281 5 322 11 393 65 55 42
72 78 72 160 0 39 -5 84 -10 98 -17 46 12 24 39 -29z m1681 -50 c47 -8 123
-26 170 -41 90 -29 256 -109 303 -147 l28 -23 -66 -85 c-36 -47 -76 -97 -88
-112 l-22 -28 -55 33 c-256 153 -603 157 -869 11 -199 -109 -349 -298 -413
-520 -20 -69 -23 -100 -22 -249 0 -158 2 -176 28 -255 50 -149 99 -232 205
-344 148 -154 341 -244 565 -262 l84 -7 17 -68 c10 -38 32 -101 51 -140 19
-39 34 -72 34 -74 0 -13 -132 -16 -227 -6 -148 16 -261 49 -399 116 -393 191
-644 572 -661 1005 -10 247 52 463 194 684 61 95 222 257 319 322 251 167 548
235 824 190z m-1923 -18 c-3 -8 -6 -5 -6 6 -1 11 2 17 5 13 3 -3 4 -12 1 -19z
m6258 -189 c-48 -95 -106 -192 -112 -186 -6 6 14 46 85 169 31 54 57 96 59 94
3 -2 -12 -37 -32 -77z m-4831 -357 c-139 -124 -230 -321 -241 -522 -12 -224
57 -414 211 -577 38 -40 64 -73 58 -73 -26 0 -167 107 -230 175 -153 163 -214
371 -166 564 38 154 159 320 304 417 73 50 113 59 64 16z"/>
<path d="M7065 5711 c-152 -38 -212 -193 -113 -288 85 -80 212 -92 299 -27
l34 25 5 -28 c3 -16 12 -28 20 -28 12 0 16 18 18 90 4 112 -6 235 -20 235 -5
0 -12 -9 -15 -19 -5 -18 -8 -17 -51 9 -50 31 -126 44 -177 31z m145 -50 c75
-39 102 -130 60 -198 -44 -73 -172 -97 -255 -48 -98 57 -98 182 -1 240 52 31
143 34 196 6z"/>
<path d="M7605 5711 c-35 -9 -73 -28 -96 -48 -14 -12 -17 -11 -22 8 -3 12 -12
19 -19 17 -10 -4 -13 -52 -13 -224 0 -188 2 -219 15 -219 12 0 16 19 20 88 l5
87 35 -25 c149 -106 377 14 340 180 -12 57 -83 120 -151 134 -55 12 -70 12
-114 2z m158 -54 c55 -30 81 -77 74 -133 -9 -80 -80 -134 -177 -134 -101 0
-170 61 -170 152 0 119 150 182 273 115z"/>
<path d="M4985 5691 c-152 -69 -151 -248 3 -318 45 -21 64 -25 113 -20 171 15
251 170 151 289 -55 65 -181 89 -267 49z m178 -25 c115 -49 129 -192 25 -256
-76 -46 -177 -33 -240 30 -33 33 -38 44 -38 85 0 62 28 107 83 134 49 24 123
27 170 7z"/>
<path d="M5760 5703 c-40 -15 -99 -66 -114 -97 -55 -115 27 -235 173 -253 136
-16 262 102 231 216 -24 90 -101 141 -210 140 -36 0 -72 -3 -80 -6z m187 -49
c40 -30 73 -82 73 -116 0 -100 -120 -178 -228 -149 -146 40 -172 202 -44 271
50 27 159 24 199 -6z"/>
<path d="M6249 5690 c-50 -26 -97 -83 -105 -126 -23 -125 114 -235 256 -206
30 7 67 21 82 32 15 11 30 20 33 20 12 0 4 -29 -16 -54 -53 -68 -168 -87 -248
-41 -50 29 -61 31 -61 9 0 -9 23 -26 56 -41 47 -21 67 -25 124 -21 57 3 77 9
112 34 69 47 78 76 78 241 0 90 -4 144 -11 148 -6 4 -13 -2 -16 -14 -6 -23
-18 -27 -28 -11 -30 48 -187 67 -256 30z m204 -33 c105 -64 103 -193 -5 -248
-120 -61 -268 8 -268 125 0 88 69 145 175 146 45 0 69 -6 98 -23z"/>
<path d="M6686 5683 c-3 -3 -6 -78 -6 -165 0 -134 2 -158 15 -158 12 0 15 17
15 95 0 65 5 105 15 124 17 34 70 81 91 81 8 0 14 7 14 15 0 23 -33 18 -74
-10 -44 -30 -46 -30 -46 -6 0 21 -13 34 -24 24z"/>
<path d="M8354 5675 c3 -10 36 -70 72 -134 l66 -116 -28 -50 c-62 -110 -68
-124 -61 -131 4 -4 14 -1 21 7 23 25 247 431 241 437 -11 11 -37 -13 -62 -58
-13 -25 -38 -71 -55 -103 -17 -32 -35 -56 -40 -55 -5 2 -35 50 -67 108 -35 64
-65 106 -76 109 -13 2 -16 -1 -11 -14z"/>
<path d="M8010 5121 c-138 -43 -253 -173 -290 -331 -20 -81 -15 -232 14 -437
19 -135 26 -224 26 -343 l0 -160 28 0 c15 0 42 4 61 10 65 18 185 30 419 40
267 12 365 29 466 83 123 65 219 192 235 311 34 251 -170 460 -421 431 l-58
-7 0 39 c0 152 -102 299 -245 352 -58 22 -182 28 -235 12z m244 -76 c65 -31
119 -88 154 -163 23 -50 24 -63 19 -154 -6 -112 -13 -105 73 -73 62 23 179 16
238 -14 65 -33 118 -87 149 -149 24 -49 28 -69 28 -142 -1 -106 -24 -160 -105
-241 -106 -106 -202 -136 -485 -149 -275 -13 -349 -19 -430 -36 -38 -8 -70
-14 -71 -14 -1 0 -4 66 -7 148 -3 81 -17 228 -31 326 -30 205 -33 317 -11 401
62 237 279 355 479 260z"/>
<path d="M5562 4434 c-37 -26 -70 -88 -97 -180 -30 -105 -32 -149 -6 -163 26
-14 89 28 179 122 63 65 72 80 72 111 0 94 -83 156 -148 110z"/>
</g>
</svg>
